<?xml version="1.0" standalone="no"?>
<!DOCTYPE svg PUBLIC "-//W3C//DTD SVG 20010904//EN"
 "http://www.w3.org/TR/2001/REC-SVG-20010904/DTD/svg10.dtd">
<svg version="1.0" xmlns="http://www.w3.org/2000/svg"
 width="1024.000000pt" height="1024.000000pt" viewBox="0 0 1024.000000 1024.000000"
 preserveAspectRatio="xMidYMid meet">

<g transform="translate(0.000000,1024.000000) scale(0.100000,-0.100000)"
fill="#000000" stroke="none">
<path d="M4820 10216 c0 -3 -31 -128 -69 -278 -39 -151 -79 -321 -91 -379 -12
-57 -33 -158 -46 -224 -32 -154 -77 -413 -104 -584 -11 -74 -22 -136 -24 -139
-3 -2 -26 34 -52 80 -120 208 -344 457 -544 605 -342 252 -786 430 -1224 488
-102 14 -154 14 -90 0 99 -21 241 -85 364 -163 166 -105 421 -343 569 -531
128 -162 372 -543 357 -558 -2 -2 -24 2 -47 9 -30 8 -108 13 -239 13 -223 0
-295 -14 -448 -87 -132 -62 -168 -127 -160 -287 4 -74 13 -115 36 -179 32 -87
97 -212 110 -212 4 0 14 33 21 73 46 250 178 511 297 587 44 27 47 28 82 13
271 -113 571 -608 697 -1153 51 -217 55 -274 20 -241 -17 14 -139 59 -226 83
-112 30 -377 32 -478 4 -68 -19 -155 -59 -166 -76 -4 -6 -35 -29 -71 -51 -125
-80 -168 -163 -146 -288 14 -75 73 -203 147 -318 57 -86 145 -201 145 -188 0
4 -10 43 -22 88 -18 67 -22 109 -23 227 0 127 3 154 24 215 27 78 59 147 73
156 6 4 51 9 101 13 76 5 106 3 172 -14 247 -65 396 -213 489 -488 23 -68 53
-218 45 -226 -2 -2 -42 9 -89 25 -70 23 -102 29 -181 29 -110 0 -172 -15 -272
-67 -60 -32 -214 -159 -204 -169 2 -2 53 10 113 27 125 36 207 36 284 2 75
-33 107 -68 155 -169 25 -52 45 -98 45 -103 0 -5 -96 -6 -220 -3 -192 4 -220
3 -220 -10 0 -8 9 -53 21 -99 21 -86 34 -110 106 -195 52 -62 124 -180 199
-324 136 -262 139 -266 191 -276 30 -6 44 0 116 50 130 89 210 152 217 170 5
14 21 17 91 19 74 1 88 -2 108 -20 12 -11 38 -29 59 -39 20 -11 65 -42 101
-71 35 -29 80 -60 100 -69 20 -9 48 -27 63 -40 40 -33 65 -38 93 -20 25 16 35
34 107 179 21 43 50 96 63 117 23 37 29 40 70 40 25 0 45 -3 44 -7 0 -5 -20
-42 -44 -83 -67 -114 -165 -312 -165 -335 0 -22 24 -62 50 -83 36 -29 220
-128 280 -150 73 -27 160 -33 184 -13 22 19 48 95 94 276 78 306 77 317 -6
370 l-47 30 60 6 c47 6 64 12 82 33 13 15 23 33 23 41 0 13 36 45 52 45 3 0 4
-25 1 -55 -4 -38 -2 -60 8 -71 41 -49 363 -152 447 -142 41 5 54 45 60 178 4
92 1 122 -11 146 -20 38 -79 93 -147 137 -30 20 -68 49 -85 65 -16 17 -39 34
-50 40 -28 14 -155 40 -256 53 -47 6 -91 14 -99 19 -16 10 49 104 171 247 122
143 195 180 375 190 115 6 225 -7 344 -41 44 -13 80 -21 80 -17 0 15 -68 71
-126 104 -180 101 -400 119 -661 54 -53 -13 -93 -19 -93 -13 0 20 149 204 240
296 176 178 469 369 674 441 l69 24 42 -47 c49 -55 107 -161 141 -260 27 -81
58 -243 51 -270 -3 -10 -2 -18 3 -18 12 0 61 148 76 230 27 153 13 334 -33
408 -69 112 -250 217 -441 258 -95 20 -243 20 -308 1 -169 -50 -207 -64 -279
-100 -44 -22 -93 -48 -108 -59 -16 -11 -31 -17 -34 -14 -4 3 8 95 26 204 32
203 61 412 81 587 13 109 40 219 72 293 71 161 228 302 410 368 77 28 242 74
267 74 75 0 247 -140 308 -250 100 -180 131 -504 73 -774 -11 -54 -19 -100
-17 -103 9 -8 155 117 242 208 50 52 107 120 128 152 50 76 105 197 113 250 4
23 11 47 16 54 5 7 8 40 5 75 -18 251 -165 441 -420 543 -104 41 -152 51 -307
64 -301 25 -299 25 -410 -3 -56 -15 -142 -43 -190 -62 -147 -59 -395 -209
-504 -305 -24 -22 -49 -39 -54 -39 -12 0 -8 47 19 195 37 203 108 390 199 526
64 96 211 236 307 293 101 59 254 119 393 152 124 30 374 43 480 26 36 -6 83
-14 105 -17 l40 -5 -39 15 c-22 8 -103 27 -180 42 -193 36 -474 37 -671 3
-310 -53 -539 -166 -749 -369 -119 -116 -205 -228 -288 -378 -35 -62 -65 -112
-68 -113 -3 0 -36 91 -73 203 -65 195 -161 443 -245 632 -98 222 -290 575
-312 575 -6 0 -10 -2 -10 -4z"/>
<path d="M6587 5383 c-4 -3 -7 -89 -7 -189 l0 -183 28 -19 c53 -38 396 -203
409 -197 10 3 12 13 8 27 -15 54 -101 216 -173 325 -84 126 -157 202 -217 227
-43 19 -40 18 -48 9z"/>
<path d="M3739 5332 c-58 -38 -219 -205 -264 -276 -40 -62 -43 -92 -21 -189 8
-34 29 -127 48 -206 39 -172 56 -201 121 -201 26 0 57 9 82 24 22 14 90 52
150 87 235 133 286 177 269 232 -15 51 -257 523 -276 540 -29 24 -57 21 -109
-11z"/>
<path d="M6008 5122 c-16 -6 -27 -23 -73 -112 -13 -24 -71 -297 -96 -450 -15
-93 -14 -167 2 -187 7 -8 47 -31 88 -52 42 -21 112 -56 156 -78 207 -105 284
-98 333 33 43 111 91 488 77 600 -8 70 -35 101 -114 136 -36 16 -75 33 -86 38
-11 5 -49 19 -85 31 -36 12 -69 26 -75 30 -16 11 -108 19 -127 11z"/>
<path d="M4567 5051 c-27 -15 -103 -77 -169 -137 -67 -60 -128 -114 -135 -119
-12 -9 21 -59 172 -260 181 -241 268 -352 290 -367 25 -19 48 -3 108 75 94
119 215 294 244 351 29 58 27 109 -8 178 -26 51 -109 141 -158 170 -20 12 -49
32 -65 45 -46 39 -143 83 -189 88 -33 3 -52 -2 -90 -24z"/>
<path d="M3318 4872 c-59 -89 -108 -221 -108 -293 0 -51 45 -281 71 -361 30
-96 43 -111 89 -105 47 6 161 79 184 117 30 52 18 106 -78 340 -26 63 -50 137
-53 165 -5 46 -59 175 -74 175 -3 0 -18 -17 -31 -38z"/>
<path d="M6571 4896 c-7 -8 -19 -70 -27 -138 -8 -67 -23 -175 -34 -238 -38
-222 -59 -378 -53 -399 6 -23 66 -54 318 -163 166 -71 234 -90 259 -69 30 25
61 330 53 521 -8 186 -30 261 -92 317 -79 72 -211 139 -330 168 -75 18 -80 18
-94 1z"/>
<path d="M4070 4676 c-182 -132 -210 -154 -255 -206 -26 -30 -60 -77 -76 -105
-44 -76 -32 -110 99 -288 44 -59 133 -188 198 -287 133 -203 133 -203 215
-152 46 30 291 278 380 384 46 55 51 66 46 99 -6 43 -56 125 -137 224 -67 80
-372 385 -386 385 -5 0 -43 -25 -84 -54z"/>
<path d="M5179 4653 c-53 -41 -102 -109 -220 -306 -116 -192 -136 -238 -125
-284 20 -80 452 -423 534 -423 38 0 79 65 159 255 30 71 79 184 108 251 55
125 58 136 56 193 -1 46 -40 81 -194 177 -191 118 -268 164 -276 164 -4 0 -23
-12 -42 -27z"/>
<path d="M7126 4573 c2 -21 6 -192 8 -380 3 -211 9 -350 16 -362 22 -41 243
-191 282 -191 15 0 18 8 18 43 0 72 -37 256 -73 362 -77 226 -225 565 -247
565 -5 0 -6 -17 -4 -37z"/>
<path d="M3138 4375 c-116 -191 -211 -554 -168 -636 11 -20 54 -26 65 -9 3 5
16 15 28 21 12 7 -3 -16 -34 -52 -128 -148 -128 -155 -9 -439 129 -309 193
-428 246 -456 30 -17 33 -16 72 4 22 11 82 52 133 91 51 39 104 73 119 76 14
3 44 20 64 37 37 30 38 33 33 79 -6 48 -12 63 -134 364 -38 94 -84 208 -102
255 -57 146 -111 240 -138 240 -11 0 -68 -46 -198 -159 -20 -18 -15 -8 16 29
25 30 65 83 90 118 42 61 44 66 43 135 0 76 -38 241 -71 318 l-19 43 -36 -59z"/>
<path d="M5752 4273 c-48 -71 -282 -619 -282 -660 1 -43 42 -84 120 -120 91
-43 356 -151 395 -162 61 -17 131 -14 151 6 41 41 98 214 185 553 36 141 36
164 4 196 -28 28 -158 91 -337 163 -152 61 -206 67 -236 24z"/>
<path d="M3549 4175 c-84 -31 -159 -107 -159 -161 0 -33 77 -225 183 -454 47
-102 97 -220 112 -262 37 -104 44 -109 109 -75 156 82 319 206 330 252 10 39
-14 83 -191 347 -182 273 -231 334 -280 354 -39 17 -57 17 -104 -1z"/>
<path d="M6422 4023 c-25 -10 -71 -122 -97 -234 -15 -63 -33 -136 -40 -164
-52 -188 -69 -352 -42 -388 28 -39 458 -168 559 -167 59 0 111 128 208 517 31
128 25 166 -37 225 -29 28 -170 94 -364 172 -107 43 -154 52 -187 39z"/>
<path d="M4723 3989 c-68 -29 -150 -94 -274 -218 -188 -189 -219 -251 -163
-336 83 -125 321 -321 486 -400 85 -41 144 -45 193 -15 39 24 245 309 286 395
32 66 37 121 15 163 -29 56 -429 405 -486 424 -8 3 -34 -3 -57 -13z"/>
<path d="M7085 3690 c-14 -22 -36 -73 -49 -113 -35 -109 -86 -368 -86 -441 0
-59 2 -66 28 -84 43 -31 174 -70 261 -77 104 -10 141 7 176 79 58 118 99 432
66 494 -8 15 -57 45 -139 84 -151 72 -210 98 -223 98 -5 0 -20 -18 -34 -40z"/>
<path d="M5388 3463 c-36 -40 -285 -417 -317 -482 -47 -95 -47 -105 1 -144 75
-61 349 -205 479 -252 39 -14 89 -25 113 -25 36 0 47 6 82 43 22 23 55 65 72
92 55 89 211 419 218 461 5 37 3 44 -22 68 -38 35 -195 111 -374 180 -80 31
-160 63 -178 71 -43 20 -44 19 -74 -12z"/>
<path d="M4060 3313 c-122 -73 -235 -171 -245 -214 -8 -31 32 -96 171 -285
120 -163 219 -280 266 -314 l40 -29 42 21 c123 62 343 254 399 349 20 35 37
69 37 76 0 7 -89 84 -197 172 -109 87 -232 189 -273 225 -51 44 -83 66 -101
66 -14 0 -76 -30 -139 -67z"/>
<path d="M2861 3273 c-16 -117 -29 -361 -33 -618 -3 -239 -4 -238 74 -189 116
73 226 149 255 177 60 57 60 55 -112 394 -86 169 -160 312 -164 316 -5 5 -14
-31 -20 -80z"/>
<path d="M7485 3128 c-23 -106 -33 -176 -26 -187 14 -22 57 -23 76 -1 15 17
19 37 19 118 1 99 -11 142 -39 142 -9 0 -19 -25 -30 -72z"/>
<path d="M6126 3077 c-51 -53 -110 -161 -188 -342 -66 -154 -70 -187 -28 -245
29 -41 158 -100 295 -135 123 -31 174 -29 234 7 69 41 105 93 214 312 121 244
131 283 76 311 -93 49 -432 135 -528 135 -28 0 -43 -9 -75 -43z"/>
<path d="M3731 3019 c-47 -18 -187 -125 -283 -218 -113 -108 -110 -96 -52
-221 82 -175 281 -429 349 -446 41 -10 107 15 234 91 147 87 231 151 231 174
0 31 -273 435 -377 559 -53 62 -70 73 -102 61z"/>
<path d="M6847 2933 c-19 -32 -94 -181 -167 -332 -102 -210 -131 -278 -123
-290 32 -52 164 -81 370 -81 104 0 114 2 141 24 46 40 107 167 166 346 42 130
78 268 72 278 -10 16 -67 40 -150 62 -79 21 -226 49 -258 50 -10 0 -31 -24
-51 -57z"/>
<path d="M7361 2826 c-71 -152 -188 -486 -198 -567 -5 -40 -3 -48 18 -63 52
-36 253 -10 303 41 31 31 34 56 42 363 8 292 11 280 -80 288 l-53 4 -32 -66z"/>
<path d="M4845 2808 c-100 -62 -397 -313 -429 -363 -30 -46 -22 -59 102 -163
163 -137 302 -236 399 -284 146 -72 222 -55 398 92 260 217 359 370 276 429
-45 32 -486 256 -573 290 -42 17 -87 31 -100 31 -12 0 -45 -14 -73 -32z"/>
<path d="M3214 2647 c-50 -28 -217 -171 -234 -200 -11 -18 -20 -50 -20 -72 0
-70 98 -249 210 -385 129 -155 153 -161 287 -71 108 72 142 108 149 152 5 30
-9 58 -123 247 -142 235 -216 342 -235 342 -7 0 -23 -6 -34 -13z"/>
<path d="M5694 2369 c-62 -40 -178 -152 -308 -299 -123 -139 -136 -157 -136
-191 0 -50 33 -76 138 -108 194 -59 428 -111 500 -111 51 0 110 36 188 114 95
95 210 277 251 394 l18 54 -28 22 c-57 46 -448 156 -553 156 -11 0 -42 -14
-70 -31z"/>
<path d="M4260 2330 c-19 -4 -54 -16 -76 -28 -46 -24 -351 -249 -373 -275 -23
-29 -4 -60 97 -157 261 -252 462 -401 539 -400 30 1 125 44 188 85 61 40 233
180 270 219 31 32 65 78 65 86 0 5 -25 22 -56 40 -59 33 -248 171 -369 270
-92 75 -195 147 -226 158 -13 5 -40 6 -59 2z"/>
<path d="M2893 2274 c-13 -34 29 -380 57 -476 20 -65 46 -98 79 -98 24 0 115
47 137 72 40 43 43 59 26 103 -50 125 -249 415 -284 415 -5 0 -11 -7 -15 -16z"/>
<path d="M6475 2189 c-91 -70 -333 -364 -384 -466 -24 -49 -27 -95 -7 -112 8
-7 79 -23 158 -36 79 -13 174 -30 211 -39 38 -9 104 -16 148 -16 l81 0 57 58
c100 100 281 457 281 553 0 12 -12 22 -37 29 -60 17 -228 38 -358 46 -115 6
-121 5 -150 -17z"/>
<path d="M7092 2105 c-62 -69 -232 -466 -232 -539 0 -36 30 -62 91 -80 63 -19
122 -20 251 -2 113 14 133 28 172 111 33 69 72 226 91 365 8 63 18 122 20 131
11 34 -21 42 -193 47 l-168 5 -32 -38z"/>
<path d="M3594 1954 c-34 -20 -95 -62 -135 -93 -92 -70 -97 -89 -43 -164 169
-232 363 -426 477 -475 45 -19 98 -14 150 16 87 50 278 194 275 207 -2 8 -73
75 -158 151 -85 75 -168 148 -185 163 -212 187 -267 231 -293 231 -15 0 -55
-16 -88 -36z"/>
<path d="M5065 1776 c-16 -7 -66 -46 -110 -85 -44 -39 -118 -97 -164 -129
-130 -90 -181 -131 -194 -159 -11 -24 -8 -28 28 -60 66 -57 407 -216 540 -252
73 -20 136 -14 186 17 120 77 318 272 418 411 29 41 30 45 15 62 -9 10 -33 21
-53 25 -96 16 -242 59 -325 94 -155 66 -293 97 -341 76z"/>
<path d="M3146 1727 c-48 -20 -87 -42 -99 -59 l-20 -27 23 -98 c37 -160 116
-355 192 -474 48 -76 88 -94 166 -79 115 23 286 97 341 149 l32 30 -17 33 c-9
18 -54 71 -98 118 -45 47 -108 119 -141 160 -134 171 -246 280 -287 280 -7 0
-49 -15 -92 -33z"/>
<path d="M5865 1532 c-110 -65 -385 -384 -385 -447 0 -52 60 -90 222 -138 213
-64 470 -81 539 -35 67 44 236 242 330 386 62 94 67 111 41 132 -43 36 -433
118 -597 126 -97 5 -101 5 -150 -24z"/>
<path d="M6723 1405 c-55 -39 -383 -466 -383 -500 0 -46 17 -50 294 -57 144
-3 277 -2 296 3 59 15 127 65 165 122 47 71 154 319 162 375 10 71 8 72 -272
72 -197 0 -244 -3 -262 -15z"/>
<path d="M4320 1359 c-13 -5 -84 -55 -157 -110 -176 -133 -176 -123 0 -264
344 -277 514 -344 660 -262 66 37 266 217 292 262 31 56 22 65 -130 127 -77
31 -227 101 -333 154 -167 85 -200 98 -250 101 -31 1 -68 -2 -82 -8z"/>
<path d="M3770 1101 c-93 -30 -319 -152 -346 -187 -20 -25 -4 -52 66 -108 138
-112 373 -248 545 -316 110 -44 212 -51 281 -21 73 33 255 142 261 158 8 19
-14 41 -70 70 -27 13 -138 86 -246 161 -427 295 -388 276 -491 243z"/>
<path d="M5235 957 c-65 -31 -278 -192 -333 -251 -43 -47 -52 -75 -29 -94 15
-13 247 -91 377 -126 111 -31 167 -43 274 -56 117 -14 164 -1 277 82 103 75
309 270 309 292 0 10 -15 19 -42 26 -24 6 -54 15 -68 20 -14 5 -41 12 -60 15
-19 4 -132 29 -250 57 -271 63 -379 72 -455 35z"/>
<path d="M6179 772 c-28 -19 -182 -148 -252 -212 -60 -54 -107 -116 -107 -141
0 -41 36 -49 296 -65 314 -20 404 -16 471 20 119 65 363 312 363 368 0 34 -62
41 -411 44 -297 2 -339 1 -360 -14z"/>
<path d="M3460 725 c0 -11 290 -354 318 -375 34 -28 71 -25 156 10 123 52 125
46 -26 124 -73 38 -196 106 -273 152 -145 86 -175 101 -175 89z"/>
<path d="M4630 593 c-59 -22 -237 -108 -297 -145 -35 -21 -42 -48 -19 -68 20
-15 378 -132 530 -172 100 -26 140 -32 231 -32 102 0 116 2 190 33 152 63 235
116 235 150 0 27 -14 32 -340 127 -47 13 -98 29 -115 34 -182 57 -369 90 -415
73z"/>
<path d="M4065 323 c-98 -20 -162 -37 -169 -44 -31 -28 154 -87 524 -168 304
-66 371 -73 453 -45 108 37 85 64 -105 124 -73 23 -185 59 -248 80 -63 21
-147 43 -187 49 -69 11 -227 13 -268 4z"/>
<path d="M5655 309 c-27 -3 -93 -25 -145 -49 -116 -51 -162 -72 -217 -95 -24
-10 -43 -21 -43 -25 0 -11 206 -49 340 -63 193 -20 340 -15 443 16 93 29 279
109 355 153 42 25 44 28 25 35 -53 19 -655 42 -758 28z"/>
<path d="M5014 60 c-114 -12 -144 -29 -88 -50 29 -12 539 -13 599 -1 l40 7
-36 12 c-42 15 -308 42 -389 40 -30 0 -87 -4 -126 -8z"/>
</g>
</svg>
